<svg width="155" height="84" viewBox="0 0 155 84" fill="none" xmlns="http://www.w3.org/2000/svg">
        <path
            d="M2.64205 70.25V35.3409H11.0795V49.3523H24.8352V35.3409H33.2557V70.25H24.8352V56.2216H11.0795V70.25H2.64205ZM45.929 70.6932C44.2585 70.6932 42.7756 70.4148 41.4801 69.858C40.196 69.2898 39.179 68.4375 38.429 67.3011C37.6903 66.1534 37.321 64.7159 37.321 62.9886C37.321 61.5341 37.5767 60.3068 38.0881 59.3068C38.5994 58.3068 39.304 57.4943 40.2017 56.8693C41.0994 56.2443 42.1335 55.7727 43.304 55.4545C44.4744 55.125 45.7244 54.9034 47.054 54.7898C48.5426 54.6534 49.7415 54.5114 50.6506 54.3636C51.5597 54.2045 52.2188 53.983 52.6278 53.6989C53.0483 53.4034 53.2585 52.9886 53.2585 52.4545V52.3693C53.2585 51.4943 52.9574 50.8182 52.3551 50.3409C51.7528 49.8636 50.9403 49.625 49.9176 49.625C48.8153 49.625 47.929 49.8636 47.2585 50.3409C46.5881 50.8182 46.1619 51.4773 45.9801 52.3182L38.2926 52.0455C38.5199 50.4545 39.1051 49.0341 40.0483 47.7841C41.0028 46.5227 42.3097 45.5341 43.9688 44.8182C45.6392 44.0909 47.6449 43.7273 49.9858 43.7273C51.6563 43.7273 53.196 43.9261 54.6051 44.3239C56.0142 44.7102 57.2415 45.2784 58.2869 46.0284C59.3324 46.767 60.1392 47.6761 60.7074 48.7557C61.2869 49.8352 61.5767 51.0682 61.5767 52.4545V70.25H53.7358V66.6023H53.5312C53.0653 67.4886 52.4688 68.2386 51.7415 68.8523C51.0256 69.4659 50.179 69.9261 49.2017 70.233C48.2358 70.5398 47.1449 70.6932 45.929 70.6932ZM48.5028 65.2386C49.4006 65.2386 50.2074 65.0568 50.9233 64.6932C51.6506 64.3295 52.2301 63.8295 52.6619 63.1932C53.0938 62.5455 53.3097 61.7955 53.3097 60.9432V58.4545C53.071 58.5795 52.7813 58.6932 52.4403 58.7955C52.1108 58.8977 51.7472 58.9943 51.3494 59.0852C50.9517 59.1761 50.5426 59.2557 50.1222 59.3239C49.7017 59.392 49.2983 59.4545 48.9119 59.5114C48.1278 59.6364 47.4574 59.8295 46.9006 60.0909C46.3551 60.3523 45.9347 60.6932 45.6392 61.1136C45.3551 61.5227 45.2131 62.0114 45.2131 62.5795C45.2131 63.4432 45.5199 64.1023 46.1335 64.5568C46.7585 65.0114 47.5483 65.2386 48.5028 65.2386ZM66.6733 70.25V35.3409H75.0085V48.5511H75.179C75.5199 47.7557 76.0028 46.9886 76.6278 46.25C77.2642 45.5114 78.071 44.9091 79.0483 44.4432C80.0369 43.9659 81.2188 43.7273 82.5938 43.7273C84.4119 43.7273 86.1108 44.2045 87.6903 45.1591C89.2812 46.1136 90.5653 47.5852 91.5426 49.5739C92.5199 51.5625 93.0085 54.0966 93.0085 57.1761C93.0085 60.142 92.5369 62.625 91.5938 64.625C90.6619 66.625 89.4006 68.125 87.8097 69.125C86.2301 70.125 84.4744 70.625 82.5426 70.625C81.2244 70.625 80.0824 70.4091 79.1165 69.9773C78.1506 69.5455 77.3381 68.9773 76.679 68.2727C76.0312 67.5682 75.5313 66.8125 75.179 66.0057H74.9233V70.25H66.6733ZM74.8381 57.1591C74.8381 58.5682 75.0256 59.7955 75.4006 60.8409C75.7869 61.8864 76.3381 62.6989 77.054 63.2784C77.7812 63.8466 78.6506 64.1307 79.6619 64.1307C80.6847 64.1307 81.554 63.8466 82.2699 63.2784C82.9858 62.6989 83.5256 61.8864 83.8892 60.8409C84.2642 59.7955 84.4517 58.5682 84.4517 57.1591C84.4517 55.75 84.2642 54.5284 83.8892 53.4943C83.5256 52.4602 82.9858 51.6591 82.2699 51.0909C81.5653 50.5227 80.696 50.2386 79.6619 50.2386C78.6392 50.2386 77.7699 50.517 77.054 51.0739C76.3381 51.6307 75.7869 52.4261 75.4006 53.4602C75.0256 54.4943 74.8381 55.7273 74.8381 57.1591ZM97.3764 70.25V44.0682H105.712V70.25H97.3764ZM101.553 41.017C100.382 41.017 99.3764 40.6307 98.5355 39.858C97.6946 39.0739 97.2741 38.1307 97.2741 37.0284C97.2741 35.9375 97.6946 35.0057 98.5355 34.233C99.3764 33.4489 100.382 33.0568 101.553 33.0568C102.734 33.0568 103.74 33.4489 104.57 34.233C105.411 35.0057 105.831 35.9375 105.831 37.0284C105.831 38.1307 105.411 39.0739 104.57 39.858C103.74 40.6307 102.734 41.017 101.553 41.017ZM125.795 44.0682V50.2045H109.278V44.0682H125.795ZM112.739 37.7955H121.074V62.017C121.074 62.5284 121.153 62.9432 121.312 63.2614C121.483 63.5682 121.727 63.7898 122.045 63.9261C122.364 64.0511 122.744 64.1136 123.188 64.1136C123.506 64.1136 123.841 64.0852 124.193 64.0284C124.557 63.9602 124.83 63.9034 125.011 63.858L126.273 69.875C125.875 69.9886 125.313 70.1307 124.585 70.3011C123.869 70.4716 123.011 70.5795 122.011 70.625C120.057 70.7159 118.381 70.4886 116.983 69.9432C115.597 69.3864 114.534 68.5227 113.795 67.3523C113.068 66.1818 112.716 64.7102 112.739 62.9375V37.7955ZM152.578 52.0625L144.925 52.267C144.845 51.7216 144.629 51.2386 144.277 50.8182C143.925 50.3864 143.464 50.0511 142.896 49.8125C142.339 49.5625 141.692 49.4375 140.953 49.4375C139.987 49.4375 139.163 49.6307 138.482 50.017C137.811 50.4034 137.482 50.9261 137.493 51.5852C137.482 52.0966 137.686 52.5398 138.107 52.9148C138.538 53.2898 139.305 53.5909 140.408 53.8182L145.453 54.7727C148.067 55.2727 150.01 56.1023 151.283 57.2614C152.567 58.4205 153.214 59.9545 153.226 61.8636C153.214 63.6591 152.68 65.2216 151.624 66.5511C150.578 67.8807 149.146 68.9148 147.328 69.6534C145.51 70.3807 143.43 70.7443 141.089 70.7443C137.351 70.7443 134.402 69.9773 132.243 68.4432C130.095 66.8977 128.868 64.8295 128.561 62.2386L136.794 62.0341C136.976 62.9886 137.447 63.7159 138.209 64.2159C138.97 64.7159 139.942 64.9659 141.124 64.9659C142.192 64.9659 143.061 64.767 143.732 64.3693C144.402 63.9716 144.743 63.4432 144.754 62.7841C144.743 62.1932 144.482 61.7216 143.97 61.3693C143.459 61.0057 142.658 60.7216 141.567 60.517L136.999 59.6477C134.374 59.1705 132.419 58.2898 131.135 57.0057C129.851 55.7102 129.214 54.0625 129.226 52.0625C129.214 50.3125 129.68 48.8182 130.624 47.5795C131.567 46.3295 132.908 45.375 134.646 44.7159C136.385 44.0568 138.436 43.7273 140.8 43.7273C144.345 43.7273 147.141 44.4716 149.186 45.9602C151.232 47.4375 152.362 49.4716 152.578 52.0625Z"
            fill="white" />
        <rect x="0.5" y="1.25" width="15" height="15" rx="3.5" fill="#18181B" stroke="#27272A" />
        <rect x="20.5" y="1.25" width="15" height="15" rx="3.5" fill="#4C1D95" stroke="#6D28D9" />
        <rect x="40.5" y="1.25" width="15" height="15" rx="3.5" fill="#5B21B6" stroke="#7C3AED" />
        <rect x="60.5" y="1.25" width="15" height="15" rx="3.5" fill="#6D28D9" stroke="#8B5CF6" />
        <rect x="80.5" y="1.25" width="15" height="15" rx="3.5" fill="#7C3AED" stroke="#A78BFA" />
        <rect x="100.5" y="1.25" width="15" height="15" rx="3.5" fill="#8B5CF6" stroke="#C4B5FD" />
    </svg>